<?xml version="1.0" encoding="UTF-8" standalone="no"?>
<!DOCTYPE svg PUBLIC "-//W3C//DTD SVG 1.1//EN"
 "http://www.w3.org/Graphics/SVG/1.1/DTD/svg11.dtd">
<!-- Generated by graphviz version 2.43.0 (0)
 -->
<!-- Title: python&#45;deps Pages: 1 -->
<svg width="1614pt" height="1119pt"
 viewBox="0.00 0.00 1614.00 1118.66" xmlns="http://www.w3.org/2000/svg" xmlns:xlink="http://www.w3.org/1999/xlink">
<g id="graph0" class="graph" transform="scale(1 1) rotate(0) translate(4 1114.66)">
<title>python&#45;deps</title>
<polygon fill="white" stroke="transparent" points="-4,4 -4,-1114.66 1610,-1114.66 1610,4 -4,4"/>
<!-- app/__init__.py -->
<g id="node1" class="node">
<title>app/__init__.py</title>
<polygon fill="#e8e8e8" stroke="black" points="74,-449.66 6,-449.66 6,-413.66 74,-413.66 74,-449.66"/>
<text text-anchor="middle" x="40" y="-427.96" font-family="Times,serif" font-size="14.00">__init__</text>
</g>
<!-- app/config.py -->
<g id="node2" class="node">
<title>app/config.py</title>
<polygon fill="#f9e2af" stroke="black" points="1418.5,-288.66 1359.5,-288.66 1359.5,-252.66 1418.5,-252.66 1418.5,-288.66"/>
<text text-anchor="middle" x="1389" y="-266.96" font-family="Times,serif" font-size="14.00">config</text>
</g>
<!-- app/database.py -->
<g id="node3" class="node">
<title>app/database.py</title>
<polygon fill="#f9e2af" stroke="black" points="448,-480.66 367,-480.66 367,-444.66 448,-444.66 448,-480.66"/>
<text text-anchor="middle" x="407.5" y="-458.96" font-family="Times,serif" font-size="14.00">database</text>
</g>
<!-- app/database.py&#45;&gt;app/config.py -->
<g id="edge1" class="edge">
<title>app/database.py&#45;&gt;app/config.py</title>
<path fill="none" stroke="black" d="M448.09,-463.2C560.09,-464.44 877.59,-465.83 979,-443.66 1123.17,-412.15 1280.39,-331.05 1350.56,-292.13"/>
<polygon fill="black" stroke="black" points="1352.45,-295.08 1359.47,-287.15 1349.04,-288.97 1352.45,-295.08"/>
</g>
<!-- app/main.py -->
<g id="node4" class="node">
<title>app/main.py</title>
<polygon fill="#eba0ac" stroke="black" points="67,-503.66 13,-503.66 13,-467.66 67,-467.66 67,-503.66"/>
<text text-anchor="middle" x="40" y="-481.96" font-family="Times,serif" font-size="14.00">main</text>
</g>
<!-- app/main.py&#45;&gt;app/config.py -->
<g id="edge2" class="edge">
<title>app/main.py&#45;&gt;app/config.py</title>
<path fill="none" stroke="black" d="M67.39,-472.07C72.32,-468.37 76.89,-463.9 80,-458.66 156.91,-329.15 22.67,-239.89 116,-121.66 200.88,-14.14 269.51,-18.66 406.5,-18.66 406.5,-18.66 406.5,-18.66 877,-18.66 1055.62,-18.66 1128.95,42.28 1277,-57.66 1341.91,-101.48 1371.32,-195.63 1382.38,-242.69"/>
<polygon fill="black" stroke="black" points="1378.98,-243.53 1384.59,-252.52 1385.81,-242 1378.98,-243.53"/>
</g>
<!-- app/main.py&#45;&gt;app/database.py -->
<g id="edge3" class="edge">
<title>app/main.py&#45;&gt;app/database.py</title>
<path fill="none" stroke="black" d="M67.29,-484.01C127.83,-480.2 277.94,-470.75 356.6,-465.8"/>
<polygon fill="black" stroke="black" points="356.99,-469.29 366.75,-465.16 356.55,-462.3 356.99,-469.29"/>
</g>
<!-- app/models/__init__.py -->
<g id="node5" class="node">
<title>app/models/__init__.py</title>
<polygon fill="#a6e3a1" stroke="black" points="912,-736.66 840,-736.66 840,-700.66 912,-700.66 912,-736.66"/>
<text text-anchor="middle" x="876" y="-714.96" font-family="Times,serif" font-size="14.00">models/</text>
</g>
<!-- app/main.py&#45;&gt;app/models/__init__.py -->
<g id="edge4" class="edge">
<title>app/main.py&#45;&gt;app/models/__init__.py</title>
<path fill="none" stroke="black" d="M46.84,-504C56.55,-531.37 78.74,-582.51 116,-608.66 232.55,-690.48 684.21,-712.37 829.62,-717.36"/>
<polygon fill="black" stroke="black" points="829.84,-720.86 839.95,-717.7 830.07,-713.87 829.84,-720.86"/>
</g>
<!-- app/pipeline/knowledge/__init__.py -->
<g id="node18" class="node">
<title>app/pipeline/knowledge/__init__.py</title>
<polygon fill="#f38ba8" stroke="black" points="707.5,-138.66 548.5,-138.66 548.5,-102.66 707.5,-102.66 707.5,-138.66"/>
<text text-anchor="middle" x="628" y="-116.96" font-family="Times,serif" font-size="14.00">pipeline/knowledge/</text>
</g>
<!-- app/main.py&#45;&gt;app/pipeline/knowledge/__init__.py -->
<g id="edge5" class="edge">
<title>app/main.py&#45;&gt;app/pipeline/knowledge/__init__.py</title>
<path fill="none" stroke="black" d="M67.23,-471.97C72.16,-468.28 76.78,-463.84 80,-458.66 137.43,-366.33 40.59,-295 116,-216.66 225.39,-103.04 423.5,-99.8 538.27,-109.19"/>
<polygon fill="black" stroke="black" points="538.16,-112.69 548.42,-110.07 538.77,-105.72 538.16,-112.69"/>
</g>
<!-- app/routes/incidents.py -->
<g id="node27" class="node">
<title>app/routes/incidents.py</title>
<polygon fill="#fab387" stroke="black" points="272,-599.66 140,-599.66 140,-563.66 272,-563.66 272,-599.66"/>
<text text-anchor="middle" x="206" y="-577.96" font-family="Times,serif" font-size="14.00">routes/incidents</text>
</g>
<!-- app/main.py&#45;&gt;app/routes/incidents.py -->
<g id="edge6" class="edge">
<title>app/main.py&#45;&gt;app/routes/incidents.py</title>
<path fill="none" stroke="black" d="M66.58,-503.74C80.87,-513.58 99.15,-525.73 116,-535.66 129.64,-543.7 144.84,-551.84 158.76,-559"/>
<polygon fill="black" stroke="black" points="157.2,-562.13 167.7,-563.54 160.37,-555.89 157.2,-562.13"/>
</g>
<!-- app/routes/pages.py -->
<g id="node28" class="node">
<title>app/routes/pages.py</title>
<polygon fill="#fab387" stroke="black" points="260.5,-778.66 151.5,-778.66 151.5,-742.66 260.5,-742.66 260.5,-778.66"/>
<text text-anchor="middle" x="206" y="-756.96" font-family="Times,serif" font-size="14.00">routes/pages</text>
</g>
<!-- app/main.py&#45;&gt;app/routes/pages.py -->
<g id="edge7" class="edge">
<title>app/main.py&#45;&gt;app/routes/pages.py</title>
<path fill="none" stroke="black" d="M45.65,-503.99C59.39,-557.66 99.91,-711.82 116,-728.66 123.22,-736.22 132.35,-742 142,-746.41"/>
<polygon fill="black" stroke="black" points="140.78,-749.7 151.36,-750.24 143.43,-743.22 140.78,-749.7"/>
</g>
<!-- app/services/codebase_indexer.py -->
<g id="node34" class="node">
<title>app/services/codebase_indexer.py</title>
<polygon fill="#cba6f7" stroke="black" points="979,-434.66 773,-434.66 773,-398.66 979,-398.66 979,-434.66"/>
<text text-anchor="middle" x="876" y="-412.96" font-family="Times,serif" font-size="14.00">services/codebase_indexer</text>
</g>
<!-- app/main.py&#45;&gt;app/services/codebase_indexer.py -->
<g id="edge8" class="edge">
<title>app/main.py&#45;&gt;app/services/codebase_indexer.py</title>
<path fill="none" stroke="black" d="M67.13,-467.78C116.31,-435.33 227.11,-367.89 332,-343.66 397.39,-328.56 416.17,-337.49 483,-343.66 590.26,-353.56 711.94,-378.4 790.9,-396.35"/>
<polygon fill="black" stroke="black" points="790.26,-399.8 800.79,-398.62 791.82,-392.97 790.26,-399.8"/>
</g>
<!-- app/services/observability.py -->
<g id="node35" class="node">
<title>app/services/observability.py</title>
<polygon fill="#cba6f7" stroke="black" points="714.5,-242.66 541.5,-242.66 541.5,-206.66 714.5,-206.66 714.5,-242.66"/>
<text text-anchor="middle" x="628" y="-220.96" font-family="Times,serif" font-size="14.00">services/observability</text>
</g>
<!-- app/main.py&#45;&gt;app/services/observability.py -->
<g id="edge9" class="edge">
<title>app/main.py&#45;&gt;app/services/observability.py</title>
<path fill="none" stroke="black" d="M67.28,-471.44C72.09,-467.82 76.64,-463.55 80,-458.66 118.33,-402.87 69.33,-359.7 116,-310.66 222.26,-199.01 415.17,-198.29 531.15,-210.02"/>
<polygon fill="black" stroke="black" points="531.12,-213.54 541.44,-211.12 531.86,-206.58 531.12,-213.54"/>
</g>
<!-- app/services/seed_data.py -->
<g id="node36" class="node">
<title>app/services/seed_data.py</title>
<polygon fill="#cba6f7" stroke="black" points="483,-780.66 332,-780.66 332,-744.66 483,-744.66 483,-780.66"/>
<text text-anchor="middle" x="407.5" y="-758.96" font-family="Times,serif" font-size="14.00">services/seed_data</text>
</g>
<!-- app/main.py&#45;&gt;app/services/seed_data.py -->
<g id="edge10" class="edge">
<title>app/main.py&#45;&gt;app/services/seed_data.py</title>
<path fill="none" stroke="black" d="M45.29,-503.75C56.34,-548.92 86.98,-664.84 116,-690.66 177.44,-745.35 216.22,-713.67 296,-733.66 306.71,-736.35 317.99,-739.24 329.09,-742.11"/>
<polygon fill="black" stroke="black" points="328.21,-745.5 338.77,-744.63 329.98,-738.73 328.21,-745.5"/>
</g>
<!-- app/services/seed_langfuse.py -->
<g id="node37" class="node">
<title>app/services/seed_langfuse.py</title>
<polygon fill="#cba6f7" stroke="black" points="296,-526.66 116,-526.66 116,-490.66 296,-490.66 296,-526.66"/>
<text text-anchor="middle" x="206" y="-504.96" font-family="Times,serif" font-size="14.00">services/seed_langfuse</text>
</g>
<!-- app/main.py&#45;&gt;app/services/seed_langfuse.py -->
<g id="edge11" class="edge">
<title>app/main.py&#45;&gt;app/services/seed_langfuse.py</title>
<path fill="none" stroke="black" d="M67.35,-489.36C78.31,-490.9 91.78,-492.79 105.97,-494.77"/>
<polygon fill="black" stroke="black" points="105.49,-498.24 115.88,-496.16 106.46,-491.31 105.49,-498.24"/>
</g>
<!-- app/models/base.py -->
<g id="node6" class="node">
<title>app/models/base.py</title>
<polygon fill="#a6e3a1" stroke="black" points="1606,-895.66 1501,-895.66 1501,-859.66 1606,-859.66 1606,-895.66"/>
<text text-anchor="middle" x="1553.5" y="-873.96" font-family="Times,serif" font-size="14.00">models/base</text>
</g>
<!-- app/models/__init__.py&#45;&gt;app/models/base.py -->
<g id="edge12" class="edge">
<title>app/models/__init__.py&#45;&gt;app/models/base.py</title>
<path fill="none" stroke="black" d="M912.19,-708.55C983.02,-689.91 1147.13,-655.46 1277,-694.66 1380.41,-725.88 1480.61,-810.03 1526.47,-852.47"/>
<polygon fill="black" stroke="black" points="1524.18,-855.12 1533.88,-859.4 1528.97,-850.01 1524.18,-855.12"/>
</g>
<!-- app/models/incident.py -->
<g id="node7" class="node">
<title>app/models/incident.py</title>
<polygon fill="#a6e3a1" stroke="black" points="1211,-980.66 1081,-980.66 1081,-944.66 1211,-944.66 1211,-980.66"/>
<text text-anchor="middle" x="1146" y="-958.96" font-family="Times,serif" font-size="14.00">models/incident</text>
</g>
<!-- app/models/__init__.py&#45;&gt;app/models/incident.py -->
<g id="edge13" class="edge">
<title>app/models/__init__.py&#45;&gt;app/models/incident.py</title>
<path fill="none" stroke="black" d="M912.04,-735.34C934.02,-747.4 961.42,-765.6 979,-788.66 1008.65,-827.56 983.3,-855.41 1015,-892.66 1032.82,-913.6 1058.53,-929.28 1082.39,-940.44"/>
<polygon fill="black" stroke="black" points="1081.21,-943.75 1091.77,-944.64 1084.07,-937.36 1081.21,-943.75"/>
</g>
<!-- app/models/notification.py -->
<g id="node8" class="node">
<title>app/models/notification.py</title>
<polygon fill="#a6e3a1" stroke="black" points="1465,-980.66 1313,-980.66 1313,-944.66 1465,-944.66 1465,-980.66"/>
<text text-anchor="middle" x="1389" y="-958.96" font-family="Times,serif" font-size="14.00">models/notification</text>
</g>
<!-- app/models/__init__.py&#45;&gt;app/models/notification.py -->
<g id="edge14" class="edge">
<title>app/models/__init__.py&#45;&gt;app/models/notification.py</title>
<path fill="none" stroke="black" d="M911.76,-736.93C933.08,-749.39 959.86,-767.46 979,-788.66 1001.39,-813.46 988.95,-833.74 1015,-854.66 1037.85,-873.01 1201.76,-916.27 1304.55,-942.12"/>
<polygon fill="black" stroke="black" points="1303.75,-945.53 1314.3,-944.57 1305.45,-938.74 1303.75,-945.53"/>
</g>
<!-- app/models/ticket.py -->
<g id="node9" class="node">
<title>app/models/ticket.py</title>
<polygon fill="#a6e3a1" stroke="black" points="1445.5,-865.66 1332.5,-865.66 1332.5,-829.66 1445.5,-829.66 1445.5,-865.66"/>
<text text-anchor="middle" x="1389" y="-843.96" font-family="Times,serif" font-size="14.00">models/ticket</text>
</g>
<!-- app/models/__init__.py&#45;&gt;app/models/ticket.py -->
<g id="edge15" class="edge">
<title>app/models/__init__.py&#45;&gt;app/models/ticket.py</title>
<path fill="none" stroke="black" d="M912.09,-711.79C984.15,-699.41 1152.46,-679.47 1277,-734.66 1318.06,-752.86 1351.91,-793.83 1371.04,-821.11"/>
<polygon fill="black" stroke="black" points="1368.19,-823.15 1376.72,-829.44 1373.97,-819.21 1368.19,-823.15"/>
</g>
<!-- app/models/incident.py&#45;&gt;app/models/base.py -->
<g id="edge16" class="edge">
<title>app/models/incident.py&#45;&gt;app/models/base.py</title>
<path fill="none" stroke="black" d="M1211.25,-949.19C1287.98,-933.11 1415.4,-906.4 1490.92,-890.57"/>
<polygon fill="black" stroke="black" points="1491.7,-893.98 1500.77,-888.51 1490.27,-887.13 1491.7,-893.98"/>
</g>
<!-- app/models/incident.py&#45;&gt;app/models/notification.py -->
<g id="edge17" class="edge">
<title>app/models/incident.py&#45;&gt;app/models/notification.py</title>
<path fill="none" stroke="black" d="M1211.27,-956.61C1239.33,-955.86 1272.64,-955.71 1302.73,-956.18"/>
<polygon fill="black" stroke="black" points="1302.74,-959.68 1312.8,-956.36 1302.86,-952.68 1302.74,-959.68"/>
</g>
<!-- app/models/incident.py&#45;&gt;app/models/ticket.py -->
<g id="edge18" class="edge">
<title>app/models/incident.py&#45;&gt;app/models/ticket.py</title>
<path fill="none" stroke="black" d="M1211.09,-945.59C1232.97,-940.31 1256.96,-932.96 1277,-921.66 1296.71,-910.55 1295.3,-899.76 1313,-885.66 1319.17,-880.75 1325.88,-875.92 1332.67,-871.4"/>
<polygon fill="black" stroke="black" points="1334.75,-874.22 1341.27,-865.87 1330.96,-868.34 1334.75,-874.22"/>
</g>
<!-- app/models/notification.py&#45;&gt;app/models/base.py -->
<g id="edge19" class="edge">
<title>app/models/notification.py&#45;&gt;app/models/base.py</title>
<path fill="none" stroke="black" d="M1424.46,-944.64C1449.13,-931.73 1482.53,-914.26 1509.03,-900.4"/>
<polygon fill="black" stroke="black" points="1510.85,-903.4 1518.09,-895.66 1507.6,-897.2 1510.85,-903.4"/>
</g>
<!-- app/models/notification.py&#45;&gt;app/models/incident.py -->
<g id="edge20" class="edge">
<title>app/models/notification.py&#45;&gt;app/models/incident.py</title>
<path fill="none" stroke="black" d="M1312.8,-968.97C1283.67,-969.57 1250.4,-969.56 1221.35,-968.95"/>
<polygon fill="black" stroke="black" points="1221.35,-965.45 1211.27,-968.71 1221.18,-972.45 1221.35,-965.45"/>
</g>
<!-- app/models/ticket.py&#45;&gt;app/models/base.py -->
<g id="edge21" class="edge">
<title>app/models/ticket.py&#45;&gt;app/models/base.py</title>
<path fill="none" stroke="black" d="M1445.92,-857.99C1460.39,-860.66 1476.06,-863.55 1490.8,-866.27"/>
<polygon fill="black" stroke="black" points="1490.37,-869.75 1500.84,-868.13 1491.64,-862.87 1490.37,-869.75"/>
</g>
<!-- app/models/ticket.py&#45;&gt;app/models/incident.py -->
<g id="edge22" class="edge">
<title>app/models/ticket.py&#45;&gt;app/models/incident.py</title>
<path fill="none" stroke="black" d="M1368.08,-865.83C1352.48,-876.36 1330.55,-889.69 1313,-903.66 1295.3,-917.76 1296.71,-928.55 1277,-939.66 1259.93,-949.29 1240.01,-956.04 1220.96,-960.45"/>
<polygon fill="black" stroke="black" points="1220.15,-957.05 1211.09,-962.55 1221.6,-963.89 1220.15,-957.05"/>
</g>
<!-- app/pipeline/__init__.py -->
<g id="node10" class="node">
<title>app/pipeline/__init__.py</title>
<polygon fill="#f38ba8" stroke="black" points="79,-742.66 1,-742.66 1,-706.66 79,-706.66 79,-742.66"/>
<text text-anchor="middle" x="40" y="-720.96" font-family="Times,serif" font-size="14.00">pipeline/</text>
</g>
<!-- app/pipeline/dispatch/__init__.py -->
<g id="node11" class="node">
<title>app/pipeline/dispatch/__init__.py</title>
<polygon fill="#f38ba8" stroke="black" points="699.5,-866.66 556.5,-866.66 556.5,-830.66 699.5,-830.66 699.5,-866.66"/>
<text text-anchor="middle" x="628" y="-844.96" font-family="Times,serif" font-size="14.00">pipeline/dispatch/</text>
</g>
<!-- app/pipeline/dispatch/service.py -->
<g id="node12" class="node">
<title>app/pipeline/dispatch/service.py</title>
<polygon fill="#f38ba8" stroke="black" points="973,-866.66 779,-866.66 779,-830.66 973,-830.66 973,-866.66"/>
<text text-anchor="middle" x="876" y="-844.96" font-family="Times,serif" font-size="14.00">pipeline/dispatch/service</text>
</g>
<!-- app/pipeline/dispatch/__init__.py&#45;&gt;app/pipeline/dispatch/service.py -->
<g id="edge23" class="edge">
<title>app/pipeline/dispatch/__init__.py&#45;&gt;app/pipeline/dispatch/service.py</title>
<path fill="none" stroke="black" d="M699.82,-848.66C721.21,-848.66 745.19,-848.66 768.37,-848.66"/>
<polygon fill="black" stroke="black" points="768.6,-852.16 778.6,-848.66 768.6,-845.16 768.6,-852.16"/>
</g>
<!-- app/pipeline/dispatch/service.py&#45;&gt;app/models/incident.py -->
<g id="edge24" class="edge">
<title>app/pipeline/dispatch/service.py&#45;&gt;app/models/incident.py</title>
<path fill="none" stroke="black" d="M953.71,-866.7C962.66,-870.52 971.33,-875.12 979,-880.66 1001.2,-896.69 992.31,-915.34 1015,-930.66 1031.48,-941.8 1051.48,-949.06 1070.79,-953.8"/>
<polygon fill="black" stroke="black" points="1070.28,-957.28 1080.8,-956.06 1071.81,-950.45 1070.28,-957.28"/>
</g>
<!-- app/pipeline/dispatch/service.py&#45;&gt;app/models/notification.py -->
<g id="edge25" class="edge">
<title>app/pipeline/dispatch/service.py&#45;&gt;app/models/notification.py</title>
<path fill="none" stroke="black" d="M887.67,-866.66C907.8,-898.64 954.85,-964.37 1015,-989.66 1117.53,-1032.78 1249.86,-1006.1 1326.2,-983.73"/>
<polygon fill="black" stroke="black" points="1327.57,-986.97 1336.14,-980.75 1325.56,-980.27 1327.57,-986.97"/>
</g>
<!-- app/pipeline/dispatch/service.py&#45;&gt;app/models/ticket.py -->
<g id="edge26" class="edge">
<title>app/pipeline/dispatch/service.py&#45;&gt;app/models/ticket.py</title>
<path fill="none" stroke="black" d="M973.12,-853.38C987.17,-853.91 1001.45,-854.37 1015,-854.66 1131.42,-857.19 1160.61,-858.33 1277,-854.66 1291.66,-854.2 1307.4,-853.4 1322.28,-852.49"/>
<polygon fill="black" stroke="black" points="1322.66,-855.98 1332.42,-851.86 1322.22,-848.99 1322.66,-855.98"/>
</g>
<!-- app/pipeline/explain.py -->
<g id="node13" class="node">
<title>app/pipeline/explain.py</title>
<polygon fill="#f38ba8" stroke="black" points="472.5,-1078.66 342.5,-1078.66 342.5,-1042.66 472.5,-1042.66 472.5,-1078.66"/>
<text text-anchor="middle" x="407.5" y="-1056.96" font-family="Times,serif" font-size="14.00">pipeline/explain</text>
</g>
<!-- app/pipeline/guardrail/__init__.py -->
<g id="node14" class="node">
<title>app/pipeline/guardrail/__init__.py</title>
<polygon fill="#f38ba8" stroke="black" points="482,-572.66 333,-572.66 333,-536.66 482,-536.66 482,-572.66"/>
<text text-anchor="middle" x="407.5" y="-550.96" font-family="Times,serif" font-size="14.00">pipeline/guardrail/</text>
</g>
<!-- app/pipeline/guardrail/checks.py -->
<g id="node15" class="node">
<title>app/pipeline/guardrail/checks.py</title>
<polygon fill="#f38ba8" stroke="black" points="726.5,-572.66 529.5,-572.66 529.5,-536.66 726.5,-536.66 726.5,-572.66"/>
<text text-anchor="middle" x="628" y="-550.96" font-family="Times,serif" font-size="14.00">pipeline/guardrail/checks</text>
</g>
<!-- app/pipeline/guardrail/__init__.py&#45;&gt;app/pipeline/guardrail/checks.py -->
<g id="edge27" class="edge">
<title>app/pipeline/guardrail/__init__.py&#45;&gt;app/pipeline/guardrail/checks.py</title>
<path fill="none" stroke="black" d="M482.17,-554.66C494.1,-554.66 506.66,-554.66 519.19,-554.66"/>
<polygon fill="black" stroke="black" points="519.23,-558.16 529.23,-554.66 519.23,-551.16 519.23,-558.16"/>
</g>
<!-- app/pipeline/guardrail/pii.py -->
<g id="node16" class="node">
<title>app/pipeline/guardrail/pii.py</title>
<polygon fill="#f38ba8" stroke="black" points="959.5,-380.66 792.5,-380.66 792.5,-344.66 959.5,-344.66 959.5,-380.66"/>
<text text-anchor="middle" x="876" y="-358.96" font-family="Times,serif" font-size="14.00">pipeline/guardrail/pii</text>
</g>
<!-- app/pipeline/guardrail/rate_limit.py -->
<g id="node17" class="node">
<title>app/pipeline/guardrail/rate_limit.py</title>
<polygon fill="#f38ba8" stroke="black" points="737,-518.66 519,-518.66 519,-482.66 737,-482.66 737,-518.66"/>
<text text-anchor="middle" x="628" y="-496.96" font-family="Times,serif" font-size="14.00">pipeline/guardrail/rate_limit</text>
</g>
<!-- app/pipeline/guardrail/rate_limit.py&#45;&gt;app/config.py -->
<g id="edge28" class="edge">
<title>app/pipeline/guardrail/rate_limit.py&#45;&gt;app/config.py</title>
<path fill="none" stroke="black" d="M697.31,-518.67C822.88,-547.61 1094.22,-590.44 1277,-476.66 1341.47,-436.53 1370.98,-345.16 1382.2,-298.79"/>
<polygon fill="black" stroke="black" points="1385.66,-299.35 1384.5,-288.81 1378.84,-297.77 1385.66,-299.35"/>
</g>
<!-- app/pipeline/knowledge/loader.py -->
<g id="node19" class="node">
<title>app/pipeline/knowledge/loader.py</title>
<polygon fill="#f38ba8" stroke="black" points="978,-120.66 774,-120.66 774,-84.66 978,-84.66 978,-120.66"/>
<text text-anchor="middle" x="876" y="-98.96" font-family="Times,serif" font-size="14.00">pipeline/knowledge/loader</text>
</g>
<!-- app/pipeline/knowledge/__init__.py&#45;&gt;app/pipeline/knowledge/loader.py -->
<g id="edge29" class="edge">
<title>app/pipeline/knowledge/__init__.py&#45;&gt;app/pipeline/knowledge/loader.py</title>
<path fill="none" stroke="black" d="M707.51,-114.92C725.39,-113.61 744.72,-112.2 763.67,-110.81"/>
<polygon fill="black" stroke="black" points="764.13,-114.28 773.85,-110.06 763.62,-107.3 764.13,-114.28"/>
</g>
<!-- app/pipeline/knowledge/loader.py&#45;&gt;app/config.py -->
<g id="edge30" class="edge">
<title>app/pipeline/knowledge/loader.py&#45;&gt;app/config.py</title>
<path fill="none" stroke="black" d="M978.32,-90.01C1063,-84.17 1184.41,-87.17 1277,-135.66 1322.75,-159.62 1356.73,-211.4 1374.37,-243.41"/>
<polygon fill="black" stroke="black" points="1371.3,-245.1 1379.11,-252.27 1377.48,-241.8 1371.3,-245.1"/>
</g>
<!-- app/pipeline/triage/__init__.py -->
<g id="node20" class="node">
<title>app/pipeline/triage/__init__.py</title>
<polygon fill="#f38ba8" stroke="black" points="470,-388.66 345,-388.66 345,-352.66 470,-352.66 470,-388.66"/>
<text text-anchor="middle" x="407.5" y="-366.96" font-family="Times,serif" font-size="14.00">pipeline/triage/</text>
</g>
<!-- app/pipeline/triage/agent.py -->
<g id="node21" class="node">
<title>app/pipeline/triage/agent.py</title>
<polygon fill="#f38ba8" stroke="black" points="711,-296.66 545,-296.66 545,-260.66 711,-260.66 711,-296.66"/>
<text text-anchor="middle" x="628" y="-274.96" font-family="Times,serif" font-size="14.00">pipeline/triage/agent</text>
</g>
<!-- app/pipeline/triage/__init__.py&#45;&gt;app/pipeline/triage/agent.py -->
<g id="edge31" class="edge">
<title>app/pipeline/triage/__init__.py&#45;&gt;app/pipeline/triage/agent.py</title>
<path fill="none" stroke="black" d="M451.41,-352.6C486.81,-337.69 537.17,-316.48 574.89,-300.6"/>
<polygon fill="black" stroke="black" points="576.33,-303.79 584.19,-296.69 573.62,-297.34 576.33,-303.79"/>
</g>
<!-- app/pipeline/triage/agent.py&#45;&gt;app/config.py -->
<g id="edge32" class="edge">
<title>app/pipeline/triage/agent.py&#45;&gt;app/config.py</title>
<path fill="none" stroke="black" d="M711.2,-285.56C731.4,-287.08 752.97,-288.57 773,-289.66 996.69,-301.9 1054.56,-324.33 1277,-297.66 1301.37,-294.74 1328.12,-288.34 1349.25,-282.5"/>
<polygon fill="black" stroke="black" points="1350.47,-285.79 1359.13,-279.69 1348.56,-279.05 1350.47,-285.79"/>
</g>
<!-- app/pipeline/triage/agent.py&#45;&gt;app/pipeline/guardrail/pii.py -->
<g id="edge33" class="edge">
<title>app/pipeline/triage/agent.py&#45;&gt;app/pipeline/guardrail/pii.py</title>
<path fill="none" stroke="black" d="M698.06,-296.67C711.18,-300.77 724.65,-305.48 737,-310.66 753.88,-317.75 756.18,-323.44 773,-330.66 781.95,-334.51 791.52,-338.12 801.08,-341.44"/>
<polygon fill="black" stroke="black" points="800.02,-344.77 810.61,-344.65 802.26,-338.14 800.02,-344.77"/>
</g>
<!-- app/pipeline/triage/agent.py&#45;&gt;app/pipeline/knowledge/loader.py -->
<g id="edge34" class="edge">
<title>app/pipeline/triage/agent.py&#45;&gt;app/pipeline/knowledge/loader.py</title>
<path fill="none" stroke="black" d="M711.01,-267.95C720.58,-264 729.57,-258.71 737,-251.66 776.49,-214.24 734.64,-173.24 773,-134.66 776.09,-131.55 779.48,-128.75 783.09,-126.21"/>
<polygon fill="black" stroke="black" points="785.2,-129.02 791.86,-120.78 781.51,-123.07 785.2,-129.02"/>
</g>
<!-- app/pipeline/triage/provider.py -->
<g id="node25" class="node">
<title>app/pipeline/triage/provider.py</title>
<polygon fill="#f38ba8" stroke="black" points="969,-250.66 783,-250.66 783,-214.66 969,-214.66 969,-250.66"/>
<text text-anchor="middle" x="876" y="-228.96" font-family="Times,serif" font-size="14.00">pipeline/triage/provider</text>
</g>
<!-- app/pipeline/triage/agent.py&#45;&gt;app/pipeline/triage/provider.py -->
<g id="edge35" class="edge">
<title>app/pipeline/triage/agent.py&#45;&gt;app/pipeline/triage/provider.py</title>
<path fill="none" stroke="black" d="M693.31,-260.62C717.66,-255.41 746,-249.89 772.97,-245.08"/>
<polygon fill="black" stroke="black" points="773.59,-248.52 782.83,-243.34 772.37,-241.63 773.59,-248.52"/>
</g>
<!-- app/pipeline/triage/agent.py&#45;&gt;app/services/codebase_indexer.py -->
<g id="edge36" class="edge">
<title>app/pipeline/triage/agent.py&#45;&gt;app/services/codebase_indexer.py</title>
<path fill="none" stroke="black" d="M711.1,-294.65C720.49,-298.81 729.4,-304.06 737,-310.66 766.12,-335.98 743.51,-364.78 773,-389.66 774.35,-390.8 775.74,-391.89 777.17,-392.93"/>
<polygon fill="black" stroke="black" points="775.42,-395.97 785.72,-398.43 779.2,-390.08 775.42,-395.97"/>
</g>
<!-- app/pipeline/triage/anthropic_provider.py -->
<g id="node22" class="node">
<title>app/pipeline/triage/anthropic_provider.py</title>
<polygon fill="#f38ba8" stroke="black" points="1276.5,-234.66 1015.5,-234.66 1015.5,-198.66 1276.5,-198.66 1276.5,-234.66"/>
<text text-anchor="middle" x="1146" y="-212.96" font-family="Times,serif" font-size="14.00">pipeline/triage/anthropic_provider</text>
</g>
<!-- app/pipeline/triage/anthropic_provider.py&#45;&gt;app/config.py -->
<g id="edge37" class="edge">
<title>app/pipeline/triage/anthropic_provider.py&#45;&gt;app/config.py</title>
<path fill="none" stroke="black" d="M1235.9,-234.71C1249.68,-237.63 1263.73,-240.67 1277,-243.66 1301.11,-249.1 1328.05,-255.64 1349.35,-260.92"/>
<polygon fill="black" stroke="black" points="1348.76,-264.38 1359.31,-263.4 1350.46,-257.59 1348.76,-264.38"/>
</g>
<!-- app/pipeline/triage/anthropic_provider.py&#45;&gt;app/pipeline/triage/agent.py -->
<g id="edge38" class="edge">
<title>app/pipeline/triage/anthropic_provider.py&#45;&gt;app/pipeline/triage/agent.py</title>
<path fill="none" stroke="black" d="M1015.35,-200.25C925.35,-191.21 814.46,-185.46 773,-205.66 749.66,-217.03 758.77,-237.53 737,-251.66 731.79,-255.05 726.18,-258.01 720.36,-260.6"/>
<polygon fill="black" stroke="black" points="719.02,-257.36 711.06,-264.37 721.65,-263.85 719.02,-257.36"/>
</g>
<!-- app/pipeline/triage/langchain_provider.py -->
<g id="node23" class="node">
<title>app/pipeline/triage/langchain_provider.py</title>
<polygon fill="#f38ba8" stroke="black" points="1277,-180.66 1015,-180.66 1015,-144.66 1277,-144.66 1277,-180.66"/>
<text text-anchor="middle" x="1146" y="-158.96" font-family="Times,serif" font-size="14.00">pipeline/triage/langchain_provider</text>
</g>
<!-- app/pipeline/triage/langchain_provider.py&#45;&gt;app/config.py -->
<g id="edge39" class="edge">
<title>app/pipeline/triage/langchain_provider.py&#45;&gt;app/config.py</title>
<path fill="none" stroke="black" d="M1253.2,-180.75C1261.39,-183.34 1269.41,-186.3 1277,-189.66 1308.52,-203.65 1339.83,-227.66 1361.12,-245.92"/>
<polygon fill="black" stroke="black" points="1358.94,-248.66 1368.77,-252.6 1363.54,-243.39 1358.94,-248.66"/>
</g>
<!-- app/pipeline/triage/langchain_provider.py&#45;&gt;app/pipeline/triage/agent.py -->
<g id="edge40" class="edge">
<title>app/pipeline/triage/langchain_provider.py&#45;&gt;app/pipeline/triage/agent.py</title>
<path fill="none" stroke="black" d="M1037.79,-144.65C958.66,-137.08 851.54,-139.34 773,-188.66 745.69,-205.81 762.71,-232.19 737,-251.66 731.89,-255.53 726.3,-258.85 720.43,-261.7"/>
<polygon fill="black" stroke="black" points="718.78,-258.6 711.01,-265.79 721.58,-265.02 718.78,-258.6"/>
</g>
<!-- app/pipeline/triage/managed_provider.py -->
<g id="node24" class="node">
<title>app/pipeline/triage/managed_provider.py</title>
<polygon fill="#f38ba8" stroke="black" points="1275,-288.66 1017,-288.66 1017,-252.66 1275,-252.66 1275,-288.66"/>
<text text-anchor="middle" x="1146" y="-266.96" font-family="Times,serif" font-size="14.00">pipeline/triage/managed_provider</text>
</g>
<!-- app/pipeline/triage/managed_provider.py&#45;&gt;app/config.py -->
<g id="edge41" class="edge">
<title>app/pipeline/triage/managed_provider.py&#45;&gt;app/config.py</title>
<path fill="none" stroke="black" d="M1275.26,-270.66C1302.26,-270.66 1328.73,-270.66 1349.23,-270.66"/>
<polygon fill="black" stroke="black" points="1349.38,-274.16 1359.38,-270.66 1349.38,-267.16 1349.38,-274.16"/>
</g>
<!-- app/pipeline/triage/managed_provider.py&#45;&gt;app/pipeline/triage/agent.py -->
<g id="edge42" class="edge">
<title>app/pipeline/triage/managed_provider.py&#45;&gt;app/pipeline/triage/agent.py</title>
<path fill="none" stroke="black" d="M1016.51,-272.66C924.72,-274.08 803.4,-275.96 721.13,-277.23"/>
<polygon fill="black" stroke="black" points="720.99,-273.74 711.05,-277.39 721.1,-280.74 720.99,-273.74"/>
</g>
<!-- app/pipeline/triage/provider.py&#45;&gt;app/pipeline/triage/agent.py -->
<g id="edge43" class="edge">
<title>app/pipeline/triage/provider.py&#45;&gt;app/pipeline/triage/agent.py</title>
<path fill="none" stroke="black" d="M810.72,-250.7C783.41,-256.54 751.04,-262.78 721.25,-267.97"/>
<polygon fill="black" stroke="black" points="720.52,-264.55 711.26,-269.69 721.71,-271.44 720.52,-264.55"/>
</g>
<!-- app/pipeline/triage/provider.py&#45;&gt;app/pipeline/triage/anthropic_provider.py -->
<g id="edge44" class="edge">
<title>app/pipeline/triage/provider.py&#45;&gt;app/pipeline/triage/anthropic_provider.py</title>
<path fill="none" stroke="black" d="M969.23,-227.16C980.82,-226.46 992.88,-225.74 1005,-225.02"/>
<polygon fill="black" stroke="black" points="1005.42,-228.5 1015.19,-224.41 1005,-221.52 1005.42,-228.5"/>
</g>
<!-- app/pipeline/triage/provider.py&#45;&gt;app/pipeline/triage/langchain_provider.py -->
<g id="edge45" class="edge">
<title>app/pipeline/triage/provider.py&#45;&gt;app/pipeline/triage/langchain_provider.py</title>
<path fill="none" stroke="black" d="M930.72,-214.59C956.11,-206.39 986.94,-196.93 1015,-189.66 1023.94,-187.35 1033.27,-185.09 1042.65,-182.94"/>
<polygon fill="black" stroke="black" points="1043.44,-186.35 1052.42,-180.74 1041.9,-179.52 1043.44,-186.35"/>
</g>
<!-- app/pipeline/triage/provider.py&#45;&gt;app/pipeline/triage/managed_provider.py -->
<g id="edge46" class="edge">
<title>app/pipeline/triage/provider.py&#45;&gt;app/pipeline/triage/managed_provider.py</title>
<path fill="none" stroke="black" d="M969.23,-245.74C981.78,-247.52 994.87,-249.38 1008,-251.24"/>
<polygon fill="black" stroke="black" points="1007.65,-254.72 1018.04,-252.66 1008.63,-247.79 1007.65,-254.72"/>
</g>
<!-- app/routes/__init__.py -->
<g id="node26" class="node">
<title>app/routes/__init__.py</title>
<polygon fill="#fab387" stroke="black" points="73.5,-688.66 6.5,-688.66 6.5,-652.66 73.5,-652.66 73.5,-688.66"/>
<text text-anchor="middle" x="40" y="-666.96" font-family="Times,serif" font-size="14.00">routes/</text>
</g>
<!-- app/routes/__init__.py&#45;&gt;app/routes/incidents.py -->
<g id="edge47" class="edge">
<title>app/routes/__init__.py&#45;&gt;app/routes/incidents.py</title>
<path fill="none" stroke="black" d="M73.79,-652.87C99.32,-639.01 134.95,-619.68 162.64,-604.65"/>
<polygon fill="black" stroke="black" points="164.58,-607.58 171.7,-599.73 161.24,-601.43 164.58,-607.58"/>
</g>
<!-- app/routes/__init__.py&#45;&gt;app/routes/pages.py -->
<g id="edge48" class="edge">
<title>app/routes/__init__.py&#45;&gt;app/routes/pages.py</title>
<path fill="none" stroke="black" d="M68.12,-688.89C72.15,-691.76 76.22,-694.74 80,-697.66 96.7,-710.58 97.76,-718.02 116,-728.66 124.11,-733.39 133.03,-737.6 142,-741.29"/>
<polygon fill="black" stroke="black" points="140.74,-744.56 151.33,-744.95 143.3,-738.04 140.74,-744.56"/>
</g>
<!-- app/routes/incidents.py&#45;&gt;app/config.py -->
<g id="edge49" class="edge">
<title>app/routes/incidents.py&#45;&gt;app/config.py</title>
<path fill="none" stroke="black" d="M272.07,-587.36C478.83,-604.11 1116.67,-644.98 1277,-527.66 1353.12,-471.97 1377.62,-353.03 1385.02,-298.73"/>
<polygon fill="black" stroke="black" points="1388.5,-299.14 1386.28,-288.78 1381.55,-298.26 1388.5,-299.14"/>
</g>
<!-- app/routes/incidents.py&#45;&gt;app/database.py -->
<g id="edge50" class="edge">
<title>app/routes/incidents.py&#45;&gt;app/database.py</title>
<path fill="none" stroke="black" d="M249.7,-563.62C265.06,-556.11 282.02,-546.59 296,-535.66 315.1,-520.73 312.38,-508.91 332,-494.66 339.78,-489.02 348.71,-484.1 357.62,-479.94"/>
<polygon fill="black" stroke="black" points="359.11,-483.1 366.85,-475.87 356.29,-476.7 359.11,-483.1"/>
</g>
<!-- app/routes/incidents.py&#45;&gt;app/models/incident.py -->
<g id="edge51" class="edge">
<title>app/routes/incidents.py&#45;&gt;app/models/incident.py</title>
<path fill="none" stroke="black" d="M219.01,-599.83C237.19,-627.78 272.08,-683.41 296,-733.66 315.58,-774.81 297.94,-799.39 332,-829.66 387.08,-878.62 880.34,-934.94 1070.61,-955.05"/>
<polygon fill="black" stroke="black" points="1070.48,-958.55 1080.8,-956.12 1071.22,-951.59 1070.48,-958.55"/>
</g>
<!-- app/routes/incidents.py&#45;&gt;app/models/notification.py -->
<g id="edge52" class="edge">
<title>app/routes/incidents.py&#45;&gt;app/models/notification.py</title>
<path fill="none" stroke="black" d="M219.92,-600.02C238.94,-627.78 274.55,-682.64 296,-733.66 319.57,-789.72 288.47,-823.21 332,-865.66 374.77,-907.37 641.63,-976.3 1015,-1014.66 1130.83,-1026.56 1163.34,-1039.97 1277,-1014.66 1302.51,-1008.98 1329.1,-996.78 1349.85,-985.63"/>
<polygon fill="black" stroke="black" points="1351.59,-988.66 1358.66,-980.77 1348.21,-982.53 1351.59,-988.66"/>
</g>
<!-- app/routes/incidents.py&#45;&gt;app/models/ticket.py -->
<g id="edge53" class="edge">
<title>app/routes/incidents.py&#45;&gt;app/models/ticket.py</title>
<path fill="none" stroke="black" d="M272.17,-598.36C280.2,-600.46 288.29,-602.6 296,-604.66 312.04,-608.96 315.71,-611.45 332,-614.66 474.06,-642.68 869.15,-597.33 979,-691.66 1024.48,-730.72 968.58,-783.73 1015,-821.66 1060.47,-858.82 1227.94,-856.44 1322.28,-851.85"/>
<polygon fill="black" stroke="black" points="1322.49,-855.35 1332.3,-851.35 1322.13,-848.36 1322.49,-855.35"/>
</g>
<!-- app/routes/incidents.py&#45;&gt;app/pipeline/dispatch/__init__.py -->
<g id="edge54" class="edge">
<title>app/routes/incidents.py&#45;&gt;app/pipeline/dispatch/__init__.py</title>
<path fill="none" stroke="black" d="M217.64,-599.8C247.03,-649.86 327.5,-786.49 332,-789.66 394.7,-833.82 482.52,-846.73 546.02,-849.71"/>
<polygon fill="black" stroke="black" points="546.26,-853.23 556.39,-850.12 546.53,-846.23 546.26,-853.23"/>
</g>
<!-- app/routes/incidents.py&#45;&gt;app/pipeline/guardrail/__init__.py -->
<g id="edge55" class="edge">
<title>app/routes/incidents.py&#45;&gt;app/pipeline/guardrail/__init__.py</title>
<path fill="none" stroke="black" d="M272.05,-572.86C288.3,-570.66 305.96,-568.27 322.97,-565.97"/>
<polygon fill="black" stroke="black" points="323.46,-569.43 332.9,-564.62 322.52,-562.5 323.46,-569.43"/>
</g>
<!-- app/routes/incidents.py&#45;&gt;app/pipeline/guardrail/rate_limit.py -->
<g id="edge56" class="edge">
<title>app/routes/incidents.py&#45;&gt;app/pipeline/guardrail/rate_limit.py</title>
<path fill="none" stroke="black" d="M240.72,-563.61C265.31,-551.33 299.81,-535.87 332,-527.66 389.12,-513.11 454.23,-506.17 508.72,-502.95"/>
<polygon fill="black" stroke="black" points="508.97,-506.44 518.76,-502.39 508.59,-499.45 508.97,-506.44"/>
</g>
<!-- app/routes/incidents.py&#45;&gt;app/pipeline/triage/__init__.py -->
<g id="edge57" class="edge">
<title>app/routes/incidents.py&#45;&gt;app/pipeline/triage/__init__.py</title>
<path fill="none" stroke="black" d="M259.26,-563.62C272.87,-556.73 286.39,-547.57 296,-535.66 334.46,-488.01 291.86,-448.91 332,-402.66 334.62,-399.64 337.58,-396.89 340.77,-394.4"/>
<polygon fill="black" stroke="black" points="342.83,-397.24 349.11,-388.71 338.88,-391.45 342.83,-397.24"/>
</g>
<!-- app/schemas/incident.py -->
<g id="node30" class="node">
<title>app/schemas/incident.py</title>
<polygon fill="#89dceb" stroke="black" points="477.5,-986.66 337.5,-986.66 337.5,-950.66 477.5,-950.66 477.5,-986.66"/>
<text text-anchor="middle" x="407.5" y="-964.96" font-family="Times,serif" font-size="14.00">schemas/incident</text>
</g>
<!-- app/routes/incidents.py&#45;&gt;app/schemas/incident.py -->
<g id="edge58" class="edge">
<title>app/routes/incidents.py&#45;&gt;app/schemas/incident.py</title>
<path fill="none" stroke="black" d="M220.52,-599.78C240.31,-627.24 276.89,-681.72 296,-733.66 327.64,-819.66 275.08,-864.86 332,-936.66 334.25,-939.51 336.81,-942.1 339.58,-944.47"/>
<polygon fill="black" stroke="black" points="337.77,-947.48 347.91,-950.56 341.91,-941.83 337.77,-947.48"/>
</g>
<!-- app/routes/incidents.py&#45;&gt;app/services/codebase_indexer.py -->
<g id="edge59" class="edge">
<title>app/routes/incidents.py&#45;&gt;app/services/codebase_indexer.py</title>
<path fill="none" stroke="black" d="M257.72,-563.57C271.62,-556.62 285.68,-547.44 296,-535.66 327.13,-500.14 293.83,-463.5 332,-435.66 398.08,-387.47 623.79,-395.85 762.55,-406.27"/>
<polygon fill="black" stroke="black" points="762.56,-409.78 772.8,-407.06 763.1,-402.8 762.56,-409.78"/>
</g>
<!-- app/routes/incidents.py&#45;&gt;app/services/observability.py -->
<g id="edge60" class="edge">
<title>app/routes/incidents.py&#45;&gt;app/services/observability.py</title>
<path fill="none" stroke="black" d="M260.81,-563.63C274.1,-556.79 287.07,-547.66 296,-535.66 347.82,-466 279.49,-412.81 332,-343.66 379.25,-281.43 464.39,-251.64 531.09,-237.44"/>
<polygon fill="black" stroke="black" points="532.11,-240.8 541.21,-235.37 530.71,-233.94 532.11,-240.8"/>
</g>
<!-- app/routes/pages.py&#45;&gt;app/config.py -->
<g id="edge61" class="edge">
<title>app/routes/pages.py&#45;&gt;app/config.py</title>
<path fill="none" stroke="black" d="M260.77,-749.53C282.81,-745.07 308.6,-739.97 332,-735.66 436.72,-716.39 1195.2,-644.83 1277,-576.66 1363.21,-504.82 1382.46,-360.31 1386.76,-299.1"/>
<polygon fill="black" stroke="black" points="1390.26,-299.21 1387.39,-289.01 1383.28,-298.77 1390.26,-299.21"/>
</g>
<!-- app/routes/pages.py&#45;&gt;app/database.py -->
<g id="edge62" class="edge">
<title>app/routes/pages.py&#45;&gt;app/database.py</title>
<path fill="none" stroke="black" d="M218.64,-742.32C236.33,-714.12 270.6,-658.18 296,-608.66 313.98,-573.61 308.61,-559.36 332,-527.66 343.25,-512.42 358.64,-498.25 372.51,-487.04"/>
<polygon fill="black" stroke="black" points="374.76,-489.73 380.47,-480.81 370.44,-484.23 374.76,-489.73"/>
</g>
<!-- app/routes/pages.py&#45;&gt;app/models/incident.py -->
<g id="edge63" class="edge">
<title>app/routes/pages.py&#45;&gt;app/models/incident.py</title>
<path fill="none" stroke="black" d="M216.07,-778.93C243.04,-833.07 321.53,-989.37 332,-995.66 454.94,-1069.52 894.36,-1005.45 1070.84,-975.79"/>
<polygon fill="black" stroke="black" points="1071.54,-979.22 1080.82,-974.1 1070.38,-972.32 1071.54,-979.22"/>
</g>
<!-- app/routes/pages.py&#45;&gt;app/pipeline/explain.py -->
<g id="edge64" class="edge">
<title>app/routes/pages.py&#45;&gt;app/pipeline/explain.py</title>
<path fill="none" stroke="black" d="M216.36,-778.72C233.03,-811.07 268.66,-881.2 296,-941.66 313.24,-979.79 302.61,-998.88 332,-1028.66 335.14,-1031.85 338.66,-1034.74 342.4,-1037.35"/>
<polygon fill="black" stroke="black" points="340.56,-1040.33 350.9,-1042.65 344.26,-1034.39 340.56,-1040.33"/>
</g>
<!-- app/routes/pages.py&#45;&gt;app/services/seed_data.py -->
<g id="edge65" class="edge">
<title>app/routes/pages.py&#45;&gt;app/services/seed_data.py</title>
<path fill="none" stroke="black" d="M260.72,-761.2C279.47,-761.39 300.99,-761.61 321.64,-761.81"/>
<polygon fill="black" stroke="black" points="321.66,-765.31 331.69,-761.91 321.73,-758.31 321.66,-765.31"/>
</g>
<!-- app/schemas/__init__.py -->
<g id="node29" class="node">
<title>app/schemas/__init__.py</title>
<polygon fill="#89dceb" stroke="black" points="247.5,-986.66 164.5,-986.66 164.5,-950.66 247.5,-950.66 247.5,-986.66"/>
<text text-anchor="middle" x="206" y="-964.96" font-family="Times,serif" font-size="14.00">schemas/</text>
</g>
<!-- app/schemas/__init__.py&#45;&gt;app/schemas/incident.py -->
<g id="edge66" class="edge">
<title>app/schemas/__init__.py&#45;&gt;app/schemas/incident.py</title>
<path fill="none" stroke="black" d="M247.85,-968.66C270.7,-968.66 299.96,-968.66 327.12,-968.66"/>
<polygon fill="black" stroke="black" points="327.41,-972.16 337.41,-968.66 327.41,-965.16 327.41,-972.16"/>
</g>
<!-- app/schemas/incident.py&#45;&gt;app/models/incident.py -->
<g id="edge67" class="edge">
<title>app/schemas/incident.py&#45;&gt;app/models/incident.py</title>
<path fill="none" stroke="black" d="M477.79,-968.1C616.57,-966.97 927.53,-964.43 1070.5,-963.27"/>
<polygon fill="black" stroke="black" points="1070.94,-966.77 1080.92,-963.19 1070.89,-959.77 1070.94,-966.77"/>
</g>
<!-- app/schemas/notification.py -->
<g id="node31" class="node">
<title>app/schemas/notification.py</title>
<polygon fill="#89dceb" stroke="black" points="1227.5,-1110.66 1064.5,-1110.66 1064.5,-1074.66 1227.5,-1074.66 1227.5,-1110.66"/>
<text text-anchor="middle" x="1146" y="-1088.96" font-family="Times,serif" font-size="14.00">schemas/notification</text>
</g>
<!-- app/schemas/notification.py&#45;&gt;app/models/notification.py -->
<g id="edge68" class="edge">
<title>app/schemas/notification.py&#45;&gt;app/models/notification.py</title>
<path fill="none" stroke="black" d="M1227.59,-1079.24C1244.47,-1074.68 1261.76,-1068.64 1277,-1060.66 1312.04,-1042.32 1345.06,-1010.62 1365.82,-988.25"/>
<polygon fill="black" stroke="black" points="1368.5,-990.52 1372.64,-980.77 1363.32,-985.8 1368.5,-990.52"/>
</g>
<!-- app/schemas/ticket.py -->
<g id="node32" class="node">
<title>app/schemas/ticket.py</title>
<polygon fill="#89dceb" stroke="black" points="1207.5,-812.66 1084.5,-812.66 1084.5,-776.66 1207.5,-776.66 1207.5,-812.66"/>
<text text-anchor="middle" x="1146" y="-790.96" font-family="Times,serif" font-size="14.00">schemas/ticket</text>
</g>
<!-- app/schemas/ticket.py&#45;&gt;app/models/ticket.py -->
<g id="edge69" class="edge">
<title>app/schemas/ticket.py&#45;&gt;app/models/ticket.py</title>
<path fill="none" stroke="black" d="M1207.5,-807.97C1242.55,-815.68 1286.69,-825.38 1322.55,-833.27"/>
<polygon fill="black" stroke="black" points="1321.91,-836.71 1332.43,-835.44 1323.41,-829.88 1321.91,-836.71"/>
</g>
<!-- app/services/__init__.py -->
<g id="node33" class="node">
<title>app/services/__init__.py</title>
<polygon fill="#cba6f7" stroke="black" points="80,-796.66 0,-796.66 0,-760.66 80,-760.66 80,-796.66"/>
<text text-anchor="middle" x="40" y="-774.96" font-family="Times,serif" font-size="14.00">services/</text>
</g>
<!-- app/services/observability.py&#45;&gt;app/config.py -->
<g id="edge70" class="edge">
<title>app/services/observability.py&#45;&gt;app/config.py</title>
<path fill="none" stroke="black" d="M662.52,-206.65C685.71,-192.89 716.05,-172.16 737,-147.66 760.25,-120.47 742.57,-94.47 773,-75.66 815.29,-49.53 1237.77,-61.6 1277,-84.66 1336.45,-119.61 1367.68,-199.93 1380.62,-242.69"/>
<polygon fill="black" stroke="black" points="1377.31,-243.82 1383.46,-252.45 1384.03,-241.87 1377.31,-243.82"/>
</g>
<!-- app/services/seed_data.py&#45;&gt;app/models/incident.py -->
<g id="edge71" class="edge">
<title>app/services/seed_data.py&#45;&gt;app/models/incident.py</title>
<path fill="none" stroke="black" d="M483.03,-773.98C495.04,-775.65 507.35,-777.28 519,-778.66 620.95,-790.8 896.4,-760.69 979,-821.66 1012.67,-846.51 985.43,-879.05 1015,-908.66 1030.5,-924.19 1051.12,-935.47 1071.36,-943.57"/>
<polygon fill="black" stroke="black" points="1070.34,-946.92 1080.93,-947.18 1072.81,-940.37 1070.34,-946.92"/>
</g>
<!-- app/services/seed_data.py&#45;&gt;app/models/ticket.py -->
<g id="edge72" class="edge">
<title>app/services/seed_data.py&#45;&gt;app/models/ticket.py</title>
<path fill="none" stroke="black" d="M483.26,-760.49C680.12,-755.15 1202.77,-743.46 1277,-767.66 1310.24,-778.5 1341.96,-803.32 1362.91,-822.47"/>
<polygon fill="black" stroke="black" points="1360.7,-825.2 1370.39,-829.48 1365.49,-820.09 1360.7,-825.2"/>
</g>
<!-- app/services/seed_data.py&#45;&gt;app/pipeline/dispatch/__init__.py -->
<g id="edge73" class="edge">
<title>app/services/seed_data.py&#45;&gt;app/pipeline/dispatch/__init__.py</title>
<path fill="none" stroke="black" d="M441.7,-780.69C463.31,-791.97 492.34,-806.28 519,-816.66 528.98,-820.55 539.62,-824.23 550.2,-827.63"/>
<polygon fill="black" stroke="black" points="549.28,-831.01 559.87,-830.66 551.38,-824.33 549.28,-831.01"/>
</g>
<!-- app/services/seed_data.py&#45;&gt;app/services/observability.py -->
<g id="edge74" class="edge">
<title>app/services/seed_data.py&#45;&gt;app/services/observability.py</title>
<path fill="none" stroke="black" d="M418.01,-744.49C434.26,-712.53 467.18,-643.73 483,-581.66 501.22,-510.18 470.51,-307.26 519,-251.66 522.95,-247.14 527.53,-243.31 532.53,-240.09"/>
<polygon fill="black" stroke="black" points="534.27,-243.12 541.3,-235.2 530.86,-237.01 534.27,-243.12"/>
</g>
</g>
</svg>
